<svg xmlns:xlink="http://www.w3.org/1999/xlink" version="1.1" xmlns="http://www.w3.org/2000/svg" x="0px" y="0px" viewBox="0 0 265 95" xml:space="preserve" preserveAspectRatio="none" style="enable-background:new 0 0 265 95;" data-v-42c21d92="" width="265"  height="95" ><g id="Capa_2" data-v-42c21d92=""><g data-v-42c21d92=""><g data-v-42c21d92=""><path d="M104.45,53.23h-9.13l-1.74,4.21h-4.66l8.76-19.66h4.49l8.79,19.66h-4.78L104.45,53.23z M103.01,49.78
				l-3.12-7.53l-3.12,7.53H103.01z" class="st139" data-v-42c21d92="" fill="#2B2C2D"></path> <path d="M111.44,49.89c0-4.55,3.51-7.78,8.43-7.78c3.17,0,5.67,1.38,6.77,3.85l-3.4,1.83
				c-0.81-1.43-2.02-2.08-3.4-2.08c-2.22,0-3.96,1.54-3.96,4.19s1.74,4.19,3.96,4.19c1.38,0,2.58-0.62,3.4-2.08l3.4,1.85
				c-1.1,2.42-3.6,3.82-6.77,3.82C114.95,57.67,111.44,54.44,111.44,49.89z" class="st139" data-v-42c21d92="" fill="#2B2C2D"></path> <path d="M142.54,48.82v8.62h-4.1v-1.88c-0.81,1.38-2.39,2.11-4.61,2.11c-3.54,0-5.65-1.97-5.65-4.58
				c0-2.67,1.88-4.52,6.49-4.52h3.48c0-1.88-1.12-2.98-3.48-2.98c-1.6,0-3.26,0.53-4.35,1.4l-1.57-3.06
				c1.66-1.18,4.1-1.83,6.52-1.83C139.87,42.11,142.54,44.25,142.54,48.82z M138.16,52.67v-1.55h-3.01c-2.05,0-2.7,0.76-2.7,1.77
				c0,1.1,0.93,1.83,2.47,1.83C136.39,54.72,137.65,54.05,138.16,52.67z" class="st139" data-v-42c21d92="" fill="#2B2C2D"></path> <path d="M162.06,36.6v20.84h-4.19v-1.74c-1.1,1.32-2.7,1.97-4.72,1.97c-4.27,0-7.56-3.03-7.56-7.78
				s3.29-7.78,7.56-7.78c1.85,0,3.43,0.59,4.52,1.83V36.6H162.06z M157.76,49.89c0-2.61-1.69-4.19-3.85-4.19
				c-2.19,0-3.88,1.57-3.88,4.19s1.69,4.19,3.88,4.19C156.08,54.08,157.76,52.5,157.76,49.89z" class="st139" data-v-42c21d92="" fill="#2B2C2D"></path> <path d="M180.83,51.13h-11.43c0.42,1.88,2.02,3.03,4.33,3.03c1.6,0,2.75-0.48,3.79-1.46l2.33,2.53
				c-1.4,1.6-3.51,2.44-6.24,2.44c-5.23,0-8.62-3.29-8.62-7.78c0-4.52,3.46-7.78,8.06-7.78c4.44,0,7.87,2.98,7.87,7.84
				C180.91,50.29,180.85,50.76,180.83,51.13z M169.34,48.57h7.44c-0.31-1.91-1.74-3.15-3.71-3.15
				C171.08,45.43,169.65,46.63,169.34,48.57z" class="st139" data-v-42c21d92="" fill="#2B2C2D"></path> <path d="M209.37,48.8v8.65h-4.38v-7.98c0-2.44-1.1-3.57-2.87-3.57c-1.97,0-3.34,1.26-3.34,3.96v7.58h-4.38v-7.98
				c0-2.44-1.04-3.57-2.87-3.57c-1.94,0-3.31,1.26-3.31,3.96v7.58h-4.38V42.34h4.19v1.74c1.12-1.29,2.81-1.97,4.75-1.97
				c2.11,0,3.9,0.81,4.97,2.47c1.21-1.55,3.17-2.47,5.45-2.47C206.78,42.11,209.37,44.19,209.37,48.8z" class="st139" data-v-42c21d92="" fill="#2B2C2D"></path> <path d="M213.3,36.6h4.38v20.84h-4.38V36.6z" class="st139" data-v-42c21d92="" fill="#2B2C2D"></path> <path d="M220.63,49.89c0-4.55,3.51-7.78,8.31-7.78s8.29,3.23,8.29,7.78s-3.48,7.78-8.29,7.78
				S220.63,54.44,220.63,49.89z M232.8,49.89c0-2.61-1.66-4.19-3.85-4.19c-2.19,0-3.88,1.57-3.88,4.19s1.69,4.19,3.88,4.19
				C231.14,54.08,232.8,52.5,232.8,49.89z" class="st139" data-v-42c21d92="" fill="#2B2C2D"></path></g> <g data-v-42c21d92=""><polygon points="54.83,77.6 29.51,62.98 29.51,33.74 54.83,19.13 80.15,33.74 80.15,62.98 			" class="st4" data-v-42c21d92="" fill="#EA4959"></polygon> <path d="M59.87,31.94H55.7l12.98,25.14h-5.24L50.21,32.33l-15.2,28.24H48.1l3.69-6.64h-4.15l-1.81,3.11h-4.89
				l3.29-6.22h12.31l5.23,9.75h12.88L59.87,31.94z M46.01,47.6l4.36-8.07l4.36,8.07H46.01z" class="st11" data-v-42c21d92="" fill="#FFFFFF"></path></g></g></g></svg>